<svg xmlns="http://www.w3.org/2000/svg" width="84" height="83" viewBox="0 0 84 83" xmlns:xlink="http://www.w3.org/1999/xlink">
  <defs>
    <path id="a" d="M19.1847949,48.8749838 C21.0889656,48.8749838 20.8619592,48.8749838 20.8619592,48.8749838 C21.9666347,48.8749838 22.8621512,47.9732853 22.8621512,46.8829987 L22.8621512,47.7495094 C22.8621512,46.6493664 21.9697628,45.7575243 20.8621916,45.7575243 L20.0899903,45.7575243 C14.6022432,45.7575243 13.4141742,44.4538595 13.4141742,40.8829514 C13.4141742,37.5387676 13.7536225,34.6480324 13.7536225,30.9070811 C13.7536225,27.1094486 12.6787029,25.4269026 8.71847304,24.7467296 C8.48836551,24.6333675 8.55452126,24.262868 8.71847304,24.262868 C12.6896552,23.572973 13.7536225,21.8947892 13.7536225,18.0971568 C13.7536225,14.6396108 13.4141742,11.295427 13.4141742,8.12128649 C13.4141742,4.55037838 14.6022432,3.24671351 20.0899903,3.24671351 L20.8621916,3.24671351 C21.9667388,3.24671351 22.8621512,2.34501507 22.8621512,1.25472846 L22.8621512,2.12123911 C22.8621512,1.02109614 21.9719658,0.129254054 20.8620554,0.129254054 L19.1847949,0.129254054 C12.0563811,0.129254054 8.71847304,1.88636757 8.71847304,7.83788108 C8.71847304,11.7488757 9.22764546,14.8663351 9.22764546,18.4372432 C9.22764546,20.5911243 7.70012821,22.7450054 1.13746155,22.8016865 C-0.146455453,22.8016865 -0.184976816,26.2025514 1.13746155,26.2025514 C7.70017683,26.2025514 9.22764546,28.4131135 9.22764546,30.5669946 C9.22764546,34.364627 8.71847304,37.0853189 8.71847304,41.1663568 C8.71847304,47.1178703 12.0563811,48.8749838 19.1847949,48.8749838 Z"/>
    <path id="c" d="M19.1847949,48.8749838 C21.0889656,48.8749838 20.8619592,48.8749838 20.8619592,48.8749838 C21.9666347,48.8749838 22.8621512,47.9732853 22.8621512,46.8829987 L22.8621512,47.7495094 C22.8621512,46.6493664 21.9697628,45.7575243 20.8621916,45.7575243 L20.0899903,45.7575243 C14.6022432,45.7575243 13.4141742,44.4538595 13.4141742,40.8829514 C13.4141742,37.5387676 13.7536225,34.6480324 13.7536225,30.9070811 C13.7536225,27.1094486 12.6787029,25.4269026 8.71847304,24.7467296 C8.48836551,24.6333675 8.55452126,24.262868 8.71847304,24.262868 C12.6896552,23.572973 13.7536225,21.8947892 13.7536225,18.0971568 C13.7536225,14.6396108 13.4141742,11.295427 13.4141742,8.12128649 C13.4141742,4.55037838 14.6022432,3.24671351 20.0899903,3.24671351 L20.8621916,3.24671351 C21.9667388,3.24671351 22.8621512,2.34501507 22.8621512,1.25472846 L22.8621512,2.12123911 C22.8621512,1.02109614 21.9719658,0.129254054 20.8620554,0.129254054 L19.1847949,0.129254054 C12.0563811,0.129254054 8.71847304,1.88636757 8.71847304,7.83788108 C8.71847304,11.7488757 9.22764546,14.8663351 9.22764546,18.4372432 C9.22764546,20.5911243 7.70012821,22.7450054 1.13746155,22.8016865 C-0.146455453,22.8016865 -0.184976816,26.2025514 1.13746155,26.2025514 C7.70017683,26.2025514 9.22764546,28.4131135 9.22764546,30.5669946 C9.22764546,34.364627 8.71847304,37.0853189 8.71847304,41.1663568 C8.71847304,47.1178703 12.0563811,48.8749838 19.1847949,48.8749838 Z"/>
  </defs>
  <g fill="none" fill-rule="evenodd" transform="translate(.502)">
    <ellipse cx="41.5" cy="41.5" fill="#E29B4A" rx="41.5" ry="41.5"/>
    <g transform="translate(15 17)">
      <mask id="b" fill="white">
        <use xlink:href="#a"/>
      </mask>
      <use fill="#D4D4D4" xlink:href="#a"/>
      <rect width="23" height="49" fill="#F5F5F5" mask="url(#b)"/>
      <g transform="matrix(-1 0 0 1 54 0)">
        <mask id="d" fill="white">
          <use xlink:href="#c"/>
        </mask>
        <use fill="#D4D4D4" xlink:href="#c"/>
        <rect width="23" height="49" fill="#F5F5F5" mask="url(#d)"/>
      </g>
    </g>
  </g>
</svg>
