<?xml version="1.0" standalone="no"?>
<!DOCTYPE svg PUBLIC "-//W3C//DTD SVG 20010904//EN"
 "http://www.w3.org/TR/2001/REC-SVG-20010904/DTD/svg10.dtd">
<svg version="1.0" xmlns="http://www.w3.org/2000/svg"
 width="16.000000pt" height="16.000000pt" viewBox="0 0 16.000000 16.000000"
 preserveAspectRatio="xMidYMid meet">
<metadata>
Created by potrace 1.11, written by Peter Selinger 2001-2013
</metadata>
<g transform="translate(0.000000,16.000000) scale(0.004167,-0.004167)"
fill="#000000" stroke="none">
<path d="M1238 3705 c-2 -2 -27 -5 -56 -9 -95 -11 -126 -18 -187 -38 -174 -57
-274 -166 -311 -335 -13 -64 -19 -301 -10 -413 2 -25 7 -85 10 -135 3 -49 9
-133 12 -185 4 -52 6 -136 6 -186 1 -82 -3 -97 -28 -145 -18 -32 -48 -68 -77
-90 -47 -35 -150 -75 -218 -85 -19 -3 -41 -7 -49 -10 -8 -3 -64 -8 -125 -11
-73 -3 -115 -10 -126 -19 -35 -31 -47 -142 -20 -192 18 -34 36 -40 146 -45
212 -11 341 -52 420 -131 68 -69 79 -107 76 -271 -1 -71 -4 -146 -6 -165 -2
-19 -6 -78 -10 -130 -3 -52 -8 -115 -10 -140 -5 -57 -6 -337 -1 -370 12 -78
20 -101 51 -165 40 -80 53 -97 112 -143 130 -102 317 -136 735 -133 116 1 128
12 128 114 0 108 -5 111 -178 114 -230 3 -311 17 -393 66 -43 26 -59 44 -84
91 l-30 60 1 200 c0 111 4 275 9 366 24 449 -3 579 -134 668 -43 29 -145 67
-201 75 -36 6 -38 35 -3 43 127 28 197 60 254 117 43 43 69 104 83 196 13 82
13 98 0 421 -10 274 -11 535 -1 581 11 55 64 127 110 150 91 47 174 60 399 63
163 1 168 5 168 111 0 119 5 117 -251 114 -115 -1 -210 -3 -211 -4z"/>
<path d="M2191 3691 c-18 -18 -21 -33 -21 -93 1 -110 2 -111 162 -114 358 -6
466 -50 514 -209 15 -50 14 -265 -2 -605 -13 -294 -9 -405 20 -488 43 -120
115 -174 299 -222 52 -14 62 -36 20 -45 -193 -41 -292 -120 -329 -265 -20 -74
-22 -234 -8 -505 11 -214 11 -499 1 -546 -4 -20 -21 -56 -37 -81 -60 -91 -181
-126 -447 -131 -194 -3 -192 -2 -193 -114 0 -98 14 -113 108 -114 368 -3 527
16 664 80 182 83 262 239 261 506 0 61 -12 301 -18 365 -22 250 -23 432 -1
482 36 84 113 142 235 178 83 24 110 28 241 36 115 7 142 18 158 61 14 41 7
128 -12 158 -19 29 -31 32 -157 39 -246 14 -403 83 -459 204 -20 42 -22 62
-21 182 0 74 3 144 5 155 2 11 7 74 11 140 4 66 9 138 11 160 6 89 6 304 0
355 -31 238 -156 367 -411 422 -69 15 -146 21 -331 25 -237 5 -242 5 -263 -16z"/>
</g>
</svg>
