<svg xmlns="http://www.w3.org/2000/svg" width="386" height="52" viewBox="0 0 386 52" xmlns:xlink="http://www.w3.org/1999/xlink">
  <defs>
    <path id="a" d="M17.5165518,51.8673297 C19.2551425,51.8673297 18.8669414,51.8673297 18.8669414,51.8673297 C19.9754855,51.8673297 20.8741381,50.9633156 20.8741381,49.8665428 L20.8741381,50.5597924 C20.8741381,49.4547882 19.9746389,48.5590054 18.8798165,48.5590054 L18.3430346,48.5590054 C13.3324829,48.5590054 12.2477243,47.1755243 12.2477243,43.3859892 C12.2477243,39.8370595 12.5576553,36.7693405 12.5576553,32.7993514 C12.5576553,28.7692108 11.576207,26.9836517 7.96034495,26.2618355 C7.75024677,26.1415328 7.81064985,25.7483498 7.96034495,25.7483498 C11.5862069,25.0162162 12.5576553,23.2352865 12.5576553,19.2051459 C12.5576553,15.5359135 12.2477243,11.9869838 12.2477243,8.61850811 C12.2477243,4.82897297 13.3324829,3.44549189 18.3430346,3.44549189 L18.8798165,3.44549189 C19.9812499,3.44549189 20.8741381,2.54147773 20.8741381,1.44470494 L20.8741381,2.13795452 C20.8741381,1.0329504 19.9743666,0.137167568 18.8822107,0.137167568 L17.5165518,0.137167568 C11.0080001,0.137167568 7.96034495,2.00185946 7.96034495,8.31775135 C7.96034495,12.4681946 8.4252415,15.7765189 8.4252415,19.5660541 C8.4252415,21.8518054 7.03055185,24.1375568 1.03855185,24.1977081 C-0.133720196,24.1977081 -0.168891876,27.8067892 1.03855185,27.8067892 C7.03059624,27.8067892 8.4252415,30.1526919 8.4252415,32.4384432 C8.4252415,36.4685838 7.96034495,39.3558486 7.96034495,43.6867459 C7.96034495,50.0026378 11.0080001,51.8673297 17.5165518,51.8673297 Z"/>
    <path id="c" d="M17.5165518,51.8673297 C19.2551425,51.8673297 18.8669414,51.8673297 18.8669414,51.8673297 C19.9754855,51.8673297 20.8741381,50.9633156 20.8741381,49.8665428 L20.8741381,50.5597924 C20.8741381,49.4547882 19.9746389,48.5590054 18.8798165,48.5590054 L18.3430346,48.5590054 C13.3324829,48.5590054 12.2477243,47.1755243 12.2477243,43.3859892 C12.2477243,39.8370595 12.5576553,36.7693405 12.5576553,32.7993514 C12.5576553,28.7692108 11.576207,26.9836517 7.96034495,26.2618355 C7.75024677,26.1415328 7.81064985,25.7483498 7.96034495,25.7483498 C11.5862069,25.0162162 12.5576553,23.2352865 12.5576553,19.2051459 C12.5576553,15.5359135 12.2477243,11.9869838 12.2477243,8.61850811 C12.2477243,4.82897297 13.3324829,3.44549189 18.3430346,3.44549189 L18.8798165,3.44549189 C19.9812499,3.44549189 20.8741381,2.54147773 20.8741381,1.44470494 L20.8741381,2.13795452 C20.8741381,1.0329504 19.9743666,0.137167568 18.8822107,0.137167568 L17.5165518,0.137167568 C11.0080001,0.137167568 7.96034495,2.00185946 7.96034495,8.31775135 C7.96034495,12.4681946 8.4252415,15.7765189 8.4252415,19.5660541 C8.4252415,21.8518054 7.03055185,24.1375568 1.03855185,24.1977081 C-0.133720196,24.1977081 -0.168891876,27.8067892 1.03855185,27.8067892 C7.03059624,27.8067892 8.4252415,30.1526919 8.4252415,32.4384432 C8.4252415,36.4685838 7.96034495,39.3558486 7.96034495,43.6867459 C7.96034495,50.0026378 11.0080001,51.8673297 17.5165518,51.8673297 Z"/>
  </defs>
  <g fill="none" fill-rule="evenodd" transform="translate(-11 -2)">
    <g transform="translate(30.254 11)">
      <path fill="#97C965" d="M121.986814,32.109 C119.7137,29.8549887 118.577161,26.4740225 118.577161,21.966 L118.577161,1.974 C118.577161,1.61466487 118.675991,1.31250122 118.873653,1.0675 C119.071315,0.822498775 119.325448,0.7 119.636059,0.7 L125.438822,0.7 C125.749434,0.7 126.010626,0.822498775 126.222407,1.0675 C126.434187,1.31250122 126.540076,1.61466487 126.540076,1.974 L126.540076,21.868 C126.540076,23.8933435 126.956572,25.4123283 127.789576,26.425 C128.62258,27.4376717 129.815594,27.944 131.368653,27.944 C132.921711,27.944 134.114725,27.4295051 134.947729,26.4005 C135.780733,25.3714949 136.197229,23.8606766 136.197229,21.868 L136.197229,1.974 C136.197229,1.61466487 136.303118,1.31250122 136.514898,1.0675 C136.726679,0.822498775 136.987871,0.7 137.298483,0.7 L143.05889,0.7 C143.369502,0.7 143.630694,0.822498775 143.842475,1.0675 C144.054255,1.31250122 144.160144,1.61466487 144.160144,1.974 L144.160144,21.966 C144.160144,26.4740225 143.030664,29.8549887 140.771669,32.109 C138.512675,34.3630113 135.392486,35.49 131.411008,35.49 C127.401294,35.49 124.259927,34.3630113 121.986814,32.109 Z M147.485085,34.6815 C147.301541,34.4691656 147.209771,34.2323346 147.209771,33.971 C147.209771,33.774999 147.252127,33.579001 147.336839,33.383 L156.570432,17.507 L148.05689,2.317 C147.972178,2.12099902 147.929822,1.92500098 147.929822,1.729 C147.929822,1.46766536 148.021592,1.23083439 148.205136,1.0185 C148.388679,0.806165605 148.593397,0.7 148.819297,0.7 L155.299754,0.7 C155.920978,0.7 156.429244,1.05932974 156.824568,1.778 L161.610788,10.304 L166.566432,1.778 C166.961756,1.05932974 167.455904,0.7 168.04889,0.7 L174.232856,0.7 C174.458755,0.7 174.663474,0.806165605 174.847017,1.0185 C175.03056,1.23083439 175.122331,1.46766536 175.122331,1.729 C175.122331,1.92500098 175.079975,2.12099902 174.995263,2.317 L166.397008,17.409 L175.715314,33.383 C175.800026,33.579001 175.842381,33.774999 175.842381,33.971 C175.842381,34.2323346 175.750611,34.4691656 175.567068,34.6815 C175.383525,34.8938344 175.178806,35 174.952907,35 L168.260669,35 C167.639446,35 167.145298,34.6733366 166.778212,34.02 L161.356653,24.906 L156.062161,34.02 C155.695074,34.6733366 155.200927,35 154.579703,35 L148.099246,35 C147.873346,35 147.668628,34.8938344 147.485085,34.6815 Z M178.786119,34.657 C178.574338,34.4283322 178.468449,34.1343351 178.468449,33.775 L178.468449,27.307 C178.468449,26.9476649 178.574338,26.6455012 178.786119,26.4005 C178.997899,26.1554988 179.259092,26.033 179.569703,26.033 L185.160686,26.033 C185.471298,26.033 185.725431,26.1554988 185.923093,26.4005 C186.120755,26.6455012 186.219585,26.9476649 186.219585,27.307 L186.219585,33.775 C186.219585,34.1016683 186.120755,34.3874988 185.923093,34.6325 C185.725431,34.8775012 185.471298,35 185.160686,35 L179.569703,35 C179.259092,35 178.997899,34.8856678 178.786119,34.657 Z M191.619966,34.6325 C191.408185,34.3874988 191.302297,34.1016683 191.302297,33.775 L191.302297,1.974 C191.302297,1.61466487 191.401126,1.31250122 191.598788,1.0675 C191.79645,0.822498775 192.050583,0.7 192.361195,0.7 L203.500805,0.7 C207.679945,0.7 210.9272,1.85148848 213.242669,4.1545 C215.558139,6.45751151 216.77233,9.76497844 216.88528,14.077 C216.913517,15.0243381 216.927636,16.2819922 216.927636,17.85 C216.927636,19.4180078 216.913517,20.6593288 216.88528,21.574 C216.602905,30.5247114 212.212051,35 203.712585,35 L192.361195,35 C192.078821,35 191.831747,34.8775012 191.619966,34.6325 Z M203.500805,27.65 C205.279763,27.65 206.592784,27.1600049 207.439907,26.18 C208.28703,25.1999951 208.738822,23.6320108 208.795297,21.476 C208.851771,20.5286619 208.880008,19.3036742 208.880008,17.801 C208.880008,16.2983258 208.851771,15.0896712 208.795297,14.175 C208.738822,12.0843229 208.251733,10.5408383 207.334017,9.5445 C206.4163,8.54816168 205.067983,8.05 203.289025,8.05 L199.265212,8.05 L199.265212,27.65 L203.500805,27.65 Z M222.073881,34.6325 C221.862101,34.3874988 221.756212,34.1016683 221.756212,33.775 L221.756212,1.974 C221.756212,1.61466487 221.855041,1.31250122 222.052703,1.0675 C222.250365,0.822498775 222.504498,0.7 222.81511,0.7 L242.80711,0.7 C243.117722,0.7 243.378914,0.822498775 243.590695,1.0675 C243.802476,1.31250122 243.908364,1.61466487 243.908364,1.974 L243.908364,6.825 C243.908364,7.18433513 243.802476,7.47833219 243.590695,7.707 C243.378914,7.93566781 243.117722,8.05 242.80711,8.05 L229.422636,8.05 L229.422636,14.273 L241.87528,14.273 C242.185891,14.273 242.447084,14.3954988 242.658864,14.6405 C242.870645,14.8855012 242.976534,15.1876649 242.976534,15.547 L242.976534,20.006 C242.976534,20.3653351 242.870645,20.6674988 242.658864,20.9125 C242.447084,21.1575012 242.185891,21.28 241.87528,21.28 L229.422636,21.28 L229.422636,27.65 L243.145958,27.65 C243.456569,27.65 243.717762,27.7724988 243.929542,28.0175 C244.141323,28.2625012 244.247212,28.5646649 244.247212,28.924 L244.247212,33.775 C244.247212,34.1343351 244.141323,34.4283322 243.929542,34.657 C243.717762,34.8856678 243.456569,35 243.145958,35 L222.81511,35 C222.532736,35 222.285662,34.8775012 222.073881,34.6325 Z M253.184314,34.118 C251.264168,33.2033288 249.809963,31.9946742 248.821653,30.492 C247.833343,28.9893258 247.310958,27.3560088 247.254483,25.592 C247.254483,25.2979985 247.346253,25.053001 247.529797,24.857 C247.71334,24.660999 247.932177,24.563 248.186314,24.563 L253.819653,24.563 C254.158502,24.563 254.433813,24.6283327 254.645593,24.759 C254.857374,24.8896673 255.090329,25.1183317 255.344466,25.445 C255.711553,26.2290039 256.283352,26.8741641 257.059881,27.3805 C257.836411,27.8868359 258.874121,28.14 260.173042,28.14 C261.697864,28.14 262.869699,27.8705027 263.688585,27.3315 C264.50747,26.7924973 264.916907,26.0493381 264.916907,25.102 C264.916907,24.4159966 264.705129,23.8525022 264.281568,23.4115 C263.858006,22.9704978 263.180318,22.5785017 262.248483,22.2355 C261.316648,21.8924983 259.97539,21.5086688 258.224669,21.084 C254.807941,20.2999961 252.252492,19.1076747 250.558246,17.507 C248.864,15.9063253 248.01689,13.6196815 248.01689,10.647 C248.01689,8.62165654 248.503978,6.81684125 249.478169,5.2325 C250.452361,3.64815874 251.835974,2.41500441 253.629051,1.533 C255.422128,0.65099559 257.504607,0.21 259.876551,0.21 C262.361445,0.21 264.514516,0.708161685 266.335831,1.7045 C268.157145,2.70083831 269.554876,3.94215923 270.529068,5.4285 C271.503259,6.91484076 272.018584,8.37665948 272.075059,9.814 C272.075059,10.1080015 271.990348,10.3611656 271.820924,10.5735 C271.651499,10.7858344 271.439722,10.892 271.185585,10.892 L265.255754,10.892 C264.634531,10.892 264.154502,10.5980029 263.815653,10.01 C263.646228,9.32399657 263.208554,8.74416903 262.502619,8.2705 C261.796683,7.79683096 260.921336,7.56 259.876551,7.56 C258.690579,7.56 257.772876,7.80499755 257.123415,8.295 C256.473954,8.78500245 256.149229,9.50366193 256.149229,10.451 C256.149229,11.3983381 256.572784,12.1414973 257.419907,12.6805 C258.26703,13.2195027 259.848302,13.7666639 262.163771,14.322 C264.81809,14.8773361 266.928806,15.5714958 268.495983,16.4045 C270.06316,17.2375042 271.220878,18.3154934 271.969169,19.6385 C272.717461,20.9615066 273.091602,22.6356565 273.091602,24.661 C273.091602,26.8823444 272.54098,28.8096585 271.43972,30.443 C270.338461,32.0763415 268.813662,33.325829 266.86528,34.1915 C264.916897,35.057171 262.686174,35.49 260.173042,35.49 C257.434012,35.49 255.104459,35.0326712 253.184314,34.118 Z M277.475441,34.6325 C277.26366,34.3874988 277.157771,34.1016683 277.157771,33.775 L277.157771,1.925 C277.157771,1.56566487 277.26366,1.27166781 277.475441,1.043 C277.687221,0.81433219 277.934295,0.7 278.216669,0.7 L284.273568,0.7 C284.58418,0.7 284.838313,0.81433219 285.035975,1.043 C285.233637,1.27166781 285.332466,1.56566487 285.332466,1.925 L285.332466,33.775 C285.332466,34.1016683 285.233637,34.3874988 285.035975,34.6325 C284.838313,34.8775012 284.58418,35 284.273568,35 L278.216669,35 C277.934295,35 277.687221,34.8775012 277.475441,34.6325 Z M293.888364,32.0355 C291.572895,29.7324885 290.344585,26.4413547 290.203398,22.162 C290.175161,21.2473288 290.161042,19.7610103 290.161042,17.703 C290.161042,15.6449897 290.175161,14.1423381 290.203398,13.195 C290.316348,9.07897942 291.551717,5.88584468 293.909542,3.6155 C296.267368,1.34515531 299.465209,0.21 303.503161,0.21 C306.213954,0.21 308.578803,0.71632827 310.59778,1.729 C312.616756,2.74167173 314.155673,4.04015874 315.214576,5.6245 C316.27348,7.20884125 316.831161,8.83399167 316.887636,10.5 C316.887636,10.7940015 316.795865,11.0471656 316.612322,11.2595 C316.428779,11.4718344 316.209942,11.578 315.955805,11.578 L309.390636,11.578 C309.108261,11.578 308.889425,11.5208339 308.734119,11.4065 C308.578813,11.2921661 308.430569,11.1206678 308.289381,10.892 C307.950532,9.97732876 307.40697,9.1933366 306.658678,8.54 C305.910386,7.8866634 304.858558,7.56 303.503161,7.56 C300.227619,7.56 298.533399,9.5199804 298.420449,13.44 C298.392212,14.3546712 298.378093,15.7593239 298.378093,17.654 C298.378093,19.5486761 298.392212,20.9696619 298.420449,21.917 C298.533399,26.0656874 300.255856,28.14 303.587873,28.14 C305.225644,28.14 306.524546,27.6663381 307.484619,26.719 C308.444691,25.7716619 308.92472,24.334343 308.92472,22.407 L308.92472,21.525 L305.155042,21.525 C304.844431,21.525 304.583238,21.4025012 304.371458,21.1575 C304.159677,20.9124988 304.053788,20.6103351 304.053788,20.251 L304.053788,16.429 C304.053788,16.0696649 304.159677,15.7675012 304.371458,15.5225 C304.583238,15.2774988 304.844431,15.155 305.155042,15.155 L315.913449,15.155 C316.224061,15.155 316.485253,15.2774988 316.697034,15.5225 C316.908815,15.7675012 317.014703,16.0696649 317.014703,16.429 L317.014703,22.113 C317.014703,24.8896805 316.457023,27.28249 315.341644,29.2915 C314.226266,31.30051 312.652053,32.835828 310.618958,33.8975 C308.585863,34.959172 306.213954,35.49 303.503161,35.49 C299.408734,35.49 296.203834,34.3385115 293.888364,32.0355 Z M322.033881,34.6325 C321.822101,34.3874988 321.716212,34.1016683 321.716212,33.775 L321.716212,1.974 C321.716212,1.61466487 321.815041,1.31250122 322.012703,1.0675 C322.210365,0.822498775 322.464498,0.7 322.77511,0.7 L327.561331,0.7 C328.210791,0.7 328.69082,1.01033023 329.001432,1.631 L338.997432,19.908 L338.997432,1.974 C338.997432,1.61466487 339.096262,1.31250122 339.293924,1.0675 C339.491586,0.822498775 339.745719,0.7 340.056331,0.7 L345.435534,0.7 C345.746146,0.7 346.000279,0.822498775 346.197941,1.0675 C346.395603,1.31250122 346.494432,1.61466487 346.494432,1.974 L346.494432,33.726 C346.494432,34.0853351 346.395603,34.3874988 346.197941,34.6325 C346.000279,34.8775012 345.746146,35 345.435534,35 L340.649314,35 C339.999853,35 339.519824,34.6896698 339.209212,34.069 L329.255568,16.527 L329.255568,33.775 C329.255568,34.1343351 329.149679,34.4283322 328.937898,34.657 C328.726118,34.8856678 328.464925,35 328.154314,35 L322.77511,35 C322.492736,35 322.245662,34.8775012 322.033881,34.6325 Z"/>
      <path fill="#E29B4A" d="M3.77140678,32.109 C1.47005629,29.8549887 0.248805791,26.5556884 0.107618644,22.211 C0.0793812147,21.3289956 0.0652627119,19.8916766 0.0652627119,17.899 C0.0652627119,15.8736565 0.0793812147,14.4036712 0.107618644,13.489 C0.248805791,9.2423121 1.48417479,5.96751151 3.81376271,3.6645 C6.14335063,1.36148848 9.29883602,0.21 13.2803136,0.21 C15.7934448,0.21 18.045346,0.68366193 20.0360847,1.631 C22.0268235,2.57833807 23.6010366,3.95032435 24.7587712,5.747 C25.9165058,7.54367565 26.5236014,9.66698775 26.5800763,12.117 C26.5800763,12.4110015 26.488306,12.655999 26.3047627,12.852 C26.1212194,13.048001 25.9023826,13.146 25.6482458,13.146 L19.6337034,13.146 C19.2383794,13.146 18.9489501,13.0561676 18.7654068,12.8765 C18.5818635,12.6968324 18.4195007,12.3620024 18.2783136,11.872 C17.8829895,10.2713253 17.2829532,9.15250318 16.4781864,8.5155 C15.6734197,7.87849681 14.6074727,7.56 13.2803136,7.56 C10.089484,7.56 8.43761921,9.61797942 8.32466949,13.734 C8.29643206,14.6160044 8.28231356,15.9716575 8.28231356,17.801 C8.28231356,19.6303425 8.29643206,21.0186619 8.32466949,21.966 C8.43761921,26.0820206 10.089484,28.14 13.2803136,28.14 C14.5792353,28.14 15.6451823,27.8133366 16.4781864,27.16 C17.3111906,26.5066634 17.911227,25.3960078 18.2783136,23.828 C18.3912633,23.3379975 18.5465668,23.0031676 18.7442288,22.8235 C18.9418908,22.6438324 19.2383794,22.554 19.6337034,22.554 L25.6482458,22.554 C25.9023826,22.554 26.1212194,22.651999 26.3047627,22.848 C26.488306,23.044001 26.5800763,23.2889985 26.5800763,23.583 C26.5236014,26.0330122 25.9165058,28.1563243 24.7587712,29.953 C23.6010366,31.7496756 22.0268235,33.1216619 20.0360847,34.069 C18.045346,35.0163381 15.7934448,35.49 13.2803136,35.49 C9.24236117,35.49 6.07275727,34.3630113 3.77140678,32.109 Z M33.6958729,32.109 C31.3804037,29.8549887 30.1520939,26.5393552 30.0109068,22.162 C29.9826694,21.2473288 29.9685508,19.8426761 29.9685508,17.948 C29.9685508,16.0533239 29.9826694,14.6323381 30.0109068,13.685 C30.1238565,9.37297844 31.3592255,6.04917834 33.7170508,3.7135 C36.0748762,1.37782165 39.2303616,0.21 43.1836017,0.21 C47.1086044,0.21 50.2499713,1.37782165 52.6077966,3.7135 C54.965622,6.04917834 56.200991,9.37297844 56.3139407,13.685 C56.3704155,15.5796761 56.3986525,17.0006619 56.3986525,17.948 C56.3986525,18.9280049 56.3704155,20.3326575 56.3139407,22.162 C56.1727535,26.5393552 54.951503,29.8549887 52.6501525,32.109 C50.3488021,34.3630113 47.1933167,35.49 43.1836017,35.49 C39.1738867,35.49 36.0113421,34.3630113 33.6958729,32.109 Z M46.6991441,26.5965 C47.5745044,25.5674949 48.040415,23.991344 48.0968898,21.868 C48.1533647,19.9733239 48.1816017,18.6176707 48.1816017,17.801 C48.1816017,16.9843292 48.1533647,15.6613425 48.0968898,13.832 C48.040415,11.7086561 47.5745044,10.1325051 46.6991441,9.1035 C45.8237838,8.07449485 44.651948,7.56 43.1836017,7.56 C41.6870179,7.56 40.5010637,8.07449485 39.6257034,9.1035 C38.7503431,10.1325051 38.2844325,11.7086561 38.2279576,13.832 C38.1997202,14.7466712 38.1856017,16.069658 38.1856017,17.801 C38.1856017,19.5650088 38.1997202,20.9206619 38.2279576,21.868 C38.2844325,23.991344 38.7503431,25.5674949 39.6257034,26.5965 C40.5010637,27.6255051 41.6870179,28.14 43.1836017,28.14 C44.651948,28.14 45.8237838,27.6255051 46.6991441,26.5965 Z M61.5025424,34.6325 C61.2907617,34.3874988 61.1848729,34.1016683 61.1848729,33.775 L61.1848729,1.974 C61.1848729,1.61466487 61.2837024,1.31250122 61.4813644,1.0675 C61.6790264,0.822498775 61.9331595,0.7 62.2437712,0.7 L73.3833814,0.7 C77.5625209,0.7 80.8097766,1.85148848 83.1252458,4.1545 C85.440715,6.45751151 86.6549062,9.76497844 86.7678559,14.077 C86.7960934,15.0243381 86.8102119,16.2819922 86.8102119,17.85 C86.8102119,19.4180078 86.7960934,20.6593288 86.7678559,21.574 C86.4854816,30.5247114 82.0946272,35 73.595161,35 L62.2437712,35 C61.9613969,35 61.7143231,34.8775012 61.5025424,34.6325 Z M73.3833814,27.65 C75.1623394,27.65 76.4753602,27.1600049 77.3224831,26.18 C78.1696059,25.1999951 78.621398,23.6320108 78.6778729,21.476 C78.7343477,20.5286619 78.7625847,19.3036742 78.7625847,17.801 C78.7625847,16.2983258 78.7343477,15.0896712 78.6778729,14.175 C78.621398,12.0843229 78.1343097,10.5408383 77.2165932,9.5445 C76.2988768,8.54816168 74.9505597,8.05 73.1716017,8.05 L69.1477881,8.05 L69.1477881,27.65 L73.3833814,27.65 Z M91.9564576,34.6325 C91.7446769,34.3874988 91.6387881,34.1016683 91.6387881,33.775 L91.6387881,1.974 C91.6387881,1.61466487 91.7376177,1.31250122 91.9352797,1.0675 C92.1329417,0.822498775 92.3870747,0.7 92.6976864,0.7 L112.689686,0.7 C113.000298,0.7 113.26149,0.822498775 113.473271,1.0675 C113.685052,1.31250122 113.790941,1.61466487 113.790941,1.974 L113.790941,6.825 C113.790941,7.18433513 113.685052,7.47833219 113.473271,7.707 C113.26149,7.93566781 113.000298,8.05 112.689686,8.05 L99.3052119,8.05 L99.3052119,14.273 L111.757856,14.273 C112.068468,14.273 112.32966,14.3954988 112.541441,14.6405 C112.753221,14.8855012 112.85911,15.1876649 112.85911,15.547 L112.85911,20.006 C112.85911,20.3653351 112.753221,20.6674988 112.541441,20.9125 C112.32966,21.1575012 112.068468,21.28 111.757856,21.28 L99.3052119,21.28 L99.3052119,27.65 L113.028534,27.65 C113.339146,27.65 113.600338,27.7724988 113.812119,28.0175 C114.023899,28.2625012 114.129788,28.5646649 114.129788,28.924 L114.129788,33.775 C114.129788,34.1343351 114.023899,34.4283322 113.812119,34.657 C113.600338,34.8856678 113.339146,35 113.028534,35 L92.6976864,35 C92.4153121,35 92.1682383,34.8775012 91.9564576,34.6325 Z"/>
    </g>
    <g transform="translate(11.237 2)">
      <mask id="b" fill="white">
        <use xlink:href="#a"/>
      </mask>
      <use fill="#D4D4D4" xlink:href="#a"/>
      <rect width="21" height="52" fill="#D8D8D8" mask="url(#b)"/>
    </g>
    <g transform="matrix(-1 0 0 1 396.763 2)">
      <mask id="d" fill="white">
        <use xlink:href="#c"/>
      </mask>
      <use fill="#D4D4D4" xlink:href="#c"/>
      <rect width="21" height="52" fill="#D8D8D8" mask="url(#d)"/>
    </g>
  </g>
</svg>
