<svg xmlns="http://www.w3.org/2000/svg" width="149" height="83" viewBox="0 0 149 83" xmlns:xlink="http://www.w3.org/1999/xlink">
  <defs>
    <path id="a" d="M32.5307391,82.7882378 C35.7595503,82.7882378 36.7636349,82.7882378 36.7636349,82.7882378 C37.8696522,82.7882378 38.7662564,81.8924569 38.7662564,80.7918714 L38.7662564,79.5040096 C38.7662564,78.4014469 37.8710413,77.5076432 36.77277,77.5076432 L34.0656357,77.5076432 C24.7603254,77.5076432 22.7457736,75.2993946 22.7457736,69.2507135 C22.7457736,63.5860757 23.3213598,58.6895243 23.3213598,52.3528108 C23.3213598,45.9200865 21.4986702,43.0700595 14.7834978,41.9179298 C14.3933154,41.7259082 14.5054926,41.0983275 14.7834978,41.0983275 C21.5172414,39.9297297 23.3213598,37.0870919 23.3213598,30.6543676 C23.3213598,24.7977081 22.7457736,19.1330703 22.7457736,13.7564649 C22.7457736,7.70778378 24.7603254,5.49953514 34.0656357,5.49953514 L36.77277,5.49953514 C37.8737421,5.49953514 38.7662564,4.60375424 38.7662564,3.50316874 L38.7662564,2.21530694 C38.7662564,1.11274422 37.8728588,0.218940541 36.7589764,0.218940541 L32.5307391,0.218940541 C20.4434288,0.218940541 14.7834978,3.19527568 14.7834978,13.2764108 C14.7834978,19.9011568 15.6468771,25.1817514 15.6468771,31.2304324 C15.6468771,34.8788432 13.0567391,38.5272541 1.92873915,38.6232649 C-0.248337507,38.6232649 -0.313656341,44.3839135 1.92873915,44.3839135 C13.0568216,44.3839135 15.6468771,48.1283351 15.6468771,51.7767459 C15.6468771,58.2094703 14.7834978,62.8179892 14.7834978,69.7307676 C14.7834978,79.8119027 20.4434288,82.7882378 32.5307391,82.7882378 Z"/>
    <path id="c" d="M32.5307391,82.7882378 C35.7595503,82.7882378 36.7636349,82.7882378 36.7636349,82.7882378 C37.8696522,82.7882378 38.7662564,81.8924569 38.7662564,80.7918714 L38.7662564,79.5040096 C38.7662564,78.4014469 37.8710413,77.5076432 36.77277,77.5076432 L34.0656357,77.5076432 C24.7603254,77.5076432 22.7457736,75.2993946 22.7457736,69.2507135 C22.7457736,63.5860757 23.3213598,58.6895243 23.3213598,52.3528108 C23.3213598,45.9200865 21.4986702,43.0700595 14.7834978,41.9179298 C14.3933154,41.7259082 14.5054926,41.0983275 14.7834978,41.0983275 C21.5172414,39.9297297 23.3213598,37.0870919 23.3213598,30.6543676 C23.3213598,24.7977081 22.7457736,19.1330703 22.7457736,13.7564649 C22.7457736,7.70778378 24.7603254,5.49953514 34.0656357,5.49953514 L36.77277,5.49953514 C37.8737421,5.49953514 38.7662564,4.60375424 38.7662564,3.50316874 L38.7662564,2.21530694 C38.7662564,1.11274422 37.8728588,0.218940541 36.7589764,0.218940541 L32.5307391,0.218940541 C20.4434288,0.218940541 14.7834978,3.19527568 14.7834978,13.2764108 C14.7834978,19.9011568 15.6468771,25.1817514 15.6468771,31.2304324 C15.6468771,34.8788432 13.0567391,38.5272541 1.92873915,38.6232649 C-0.248337507,38.6232649 -0.313656341,44.3839135 1.92873915,44.3839135 C13.0568216,44.3839135 15.6468771,48.1283351 15.6468771,51.7767459 C15.6468771,58.2094703 14.7834978,62.8179892 14.7834978,69.7307676 C14.7834978,79.8119027 20.4434288,82.7882378 32.5307391,82.7882378 Z"/>
  </defs>
  <g fill="none" fill-rule="evenodd">
    <g transform="translate(25.581 3.59)">
      <path fill="#E29C49" d="M4.65512801,30.2644919 C2.77750918,28.6753704 1.78111904,26.3493 1.66592771,23.2862108 C1.64288944,22.6643807 1.63137048,21.6510431 1.63137048,20.2461676 C1.63137048,18.8182613 1.64288944,17.7818933 1.66592771,17.1370324 C1.78111904,14.1430355 2.78902814,11.8342378 4.68968524,10.2105703 C6.59034233,8.58690269 9.16483014,7.77508108 12.4132259,7.77508108 C14.4636317,7.77508108 16.300906,8.10902189 17.9251039,8.77691351 C19.5493018,9.44480514 20.833666,10.412082 21.7782349,11.678773 C22.7228039,12.945464 23.2181192,14.44244 23.2641958,16.1697459 C23.2641958,16.3770227 23.1893225,16.5497507 23.0395738,16.6879351 C22.889825,16.8261196 22.7112812,16.8952108 22.5039367,16.8952108 L17.5968102,16.8952108 C17.2742745,16.8952108 17.0381358,16.8318772 16.888387,16.7052081 C16.7386383,16.578539 16.6061702,16.3424774 16.4909789,15.9970162 C16.1684432,14.8685097 15.6788873,14.0797185 15.0222967,13.6306189 C14.365706,13.1815194 13.4960245,12.956973 12.4132259,12.956973 C9.80990164,12.956973 8.46218319,14.4078882 8.37003012,17.3097622 C8.34699185,17.9315923 8.33547289,18.8873539 8.33547289,20.1770757 C8.33547289,21.4667974 8.34699185,22.4455895 8.37003012,23.1134811 C8.46218319,26.015355 9.80990164,27.4662703 12.4132259,27.4662703 C13.4729862,27.4662703 14.3426678,27.2359663 15.0222967,26.7753514 C15.7019256,26.3147364 16.1914814,25.5317028 16.4909789,24.426227 C16.583132,24.0807658 16.7098406,23.8447042 16.8711084,23.7180351 C17.0323763,23.591366 17.2742745,23.5280324 17.5968102,23.5280324 L22.5039367,23.5280324 C22.7112812,23.5280324 22.889825,23.5971236 23.0395738,23.7353081 C23.1893225,23.8734926 23.2641958,24.0462206 23.2641958,24.2534973 C23.2181192,25.9808032 22.7228039,27.4777793 21.7782349,28.7444703 C20.833666,30.0111613 19.5493018,30.9784381 17.9251039,31.6463297 C16.300906,32.3142214 14.4636317,32.6481622 12.4132259,32.6481622 C9.1187536,32.6481622 6.53274683,31.8536134 4.65512801,30.2644919 Z M29.1371295,30.2644919 C27.2479916,28.6753704 26.2458419,26.3377848 26.1306506,23.2516649 C26.1076123,22.606804 26.0960934,21.6164968 26.0960934,20.2807135 C26.0960934,18.9449303 26.1076123,17.9431078 26.1306506,17.2752162 C26.2228037,14.2351578 27.2307128,11.8918145 29.1544081,10.2451162 C31.0781035,8.59841789 33.6525913,7.77508108 36.8779488,7.77508108 C40.080268,7.77508108 42.6432369,8.59841789 44.5669322,10.2451162 C46.4906276,11.8918145 47.4985367,14.2351578 47.5906898,17.2752162 C47.6367663,18.6109995 47.6598042,19.6128219 47.6598042,20.2807135 C47.6598042,20.9716359 47.6367663,21.9619431 47.5906898,23.2516649 C47.4754984,26.3377848 46.4791083,28.6753704 44.6014895,30.2644919 C42.7238706,31.8536134 40.1493828,32.6481622 36.8779488,32.6481622 C33.6065148,32.6481622 31.0262675,31.8536134 29.1371295,30.2644919 Z M39.7461988,26.378073 C40.4603851,25.6526045 40.8405108,24.5413877 40.8865873,23.0443892 C40.9326639,21.7086059 40.9557018,20.7528443 40.9557018,20.1770757 C40.9557018,19.601307 40.9326639,18.6685758 40.8865873,17.3788541 C40.8405108,15.8818556 40.4603851,14.7706388 39.7461988,14.0451703 C39.0320125,13.3197018 38.0759387,12.956973 36.8779488,12.956973 C35.6569206,12.956973 34.6893279,13.3197018 33.9751416,14.0451703 C33.2609553,14.7706388 32.8808295,15.8818556 32.834753,17.3788541 C32.8117147,18.0237149 32.8001958,18.9564461 32.8001958,20.1770757 C32.8001958,21.4207359 32.8117147,22.3764976 32.834753,23.0443892 C32.8808295,24.5413877 33.2609553,25.6526045 33.9751416,26.378073 C34.6893279,27.1035415 35.6569206,27.4662703 36.8779488,27.4662703 C38.0759387,27.4662703 39.0320125,27.1035415 39.7461988,26.378073 Z M51.8912696,32.0436081 C51.7184826,31.8708775 51.6320904,31.6693615 51.6320904,31.4390541 L51.6320904,9.01873514 C51.6320904,8.76539693 51.7127231,8.55236573 51.873991,8.37963514 C52.0352588,8.20690454 52.2426001,8.12054054 52.4960211,8.12054054 L61.5845723,8.12054054 C64.9942359,8.12054054 67.643597,8.93236215 69.5327349,10.5560297 C71.4218729,12.1796973 72.4125036,14.5115253 72.5046566,17.5515838 C72.5276949,18.2194754 72.5392139,19.1061458 72.5392139,20.2116216 C72.5392139,21.3170974 72.5276949,22.1922526 72.5046566,22.8371135 C72.2742739,29.1475379 68.691877,32.3027027 61.7573584,32.3027027 L52.4960211,32.3027027 C52.2656384,32.3027027 52.0640566,32.2163387 51.8912696,32.0436081 Z M61.5845723,27.1208108 C63.0359832,27.1208108 64.1072465,26.7753548 64.7983946,26.0844324 C65.4895426,25.3935101 65.8581494,24.2880508 65.9042259,22.7680216 C65.9503024,22.10013 65.9733404,21.23649 65.9733404,20.1770757 C65.9733404,19.1176614 65.9503024,18.2655366 65.9042259,17.6206757 C65.8581494,16.1467079 65.4607452,15.0585215 64.7120015,14.3560838 C63.9632578,13.653646 62.863197,13.3024324 61.4117861,13.3024324 L58.1288494,13.3024324 L58.1288494,27.1208108 L61.5845723,27.1208108 Z M76.8052364,32.0436081 C76.6324494,31.8708775 76.5460572,31.6693615 76.5460572,31.4390541 L76.5460572,9.01873514 C76.5460572,8.76539693 76.62669,8.55236573 76.7879578,8.37963514 C76.9492257,8.20690454 77.156567,8.12054054 77.409988,8.12054054 L93.721,8.12054054 C93.9744209,8.12054054 94.1875217,8.20690454 94.3603087,8.37963514 C94.5330957,8.55236573 94.619488,8.76539693 94.619488,9.01873514 L94.619488,12.4387838 C94.619488,12.692122 94.5330957,12.8993956 94.3603087,13.0606108 C94.1875217,13.221826 93.9744209,13.3024324 93.721,13.3024324 L82.8009157,13.3024324 L82.8009157,17.6897676 L92.960741,17.6897676 C93.2141619,17.6897676 93.4272627,17.7761316 93.6000497,17.9488622 C93.7728367,18.1215928 93.8592289,18.334624 93.8592289,18.5879622 L93.8592289,21.7316432 C93.8592289,21.9849814 93.7728367,22.1980126 93.6000497,22.3707432 C93.4272627,22.5434738 93.2141619,22.6298378 92.960741,22.6298378 L82.8009157,22.6298378 L82.8009157,27.1208108 L93.9974578,27.1208108 C94.2508788,27.1208108 94.4639796,27.2071748 94.6367666,27.3799054 C94.8095536,27.552636 94.8959458,27.7656672 94.8959458,28.0190054 L94.8959458,31.4390541 C94.8959458,31.6923923 94.8095536,31.8996659 94.6367666,32.0608811 C94.4639796,32.2220963 94.2508788,32.3027027 93.9974578,32.3027027 L77.409988,32.3027027 C77.1796053,32.3027027 76.9780235,32.2163387 76.8052364,32.0436081 Z"/>
      <g transform="translate(2.693 37.686)">
        <path fill="#9E9E9E" d="M3.50803939,29.1704622 C2.11482258,28.0782963 1.41822463,26.5703285 1.41822463,24.6465135 C1.41822463,23.4040496 1.76401786,22.3219199 2.45561469,21.4000919 C3.14721152,20.4782639 4.15452223,19.6466271 5.47757704,18.9051568 C4.71581821,18.1035672 4.16956514,17.3520882 3.83880144,16.6506973 C3.50803773,15.9493064 3.34265836,15.2278866 3.34265836,14.4864162 C3.34265836,13.5245087 3.59323317,12.6377635 4.09439029,11.8261541 C4.59554742,11.0145446 5.34727183,10.3682727 6.34958607,9.88731892 C7.35190032,9.40636516 8.56468237,9.16589189 9.98796861,9.16589189 C11.2909771,9.16589189 12.4185637,9.40636516 13.3707623,9.88731892 C14.3229608,10.3682727 15.0496277,11.0045249 15.5507849,11.7960946 C16.051942,12.5876643 16.3025168,13.4543701 16.3025168,14.3962378 C16.3025168,15.538503 15.9517121,16.5354651 15.2500921,17.3871541 C14.5484721,18.238843 13.5161039,19.0454304 12.1529566,19.8069405 L15.5808541,23.2637784 C15.8815484,22.7627849 16.1521692,22.2768285 16.3927246,21.8058946 C16.63328,21.3349607 16.8738319,20.7087282 17.1143873,19.9271784 C17.1945724,19.646622 17.4050553,19.5063459 17.7458421,19.5063459 L20.9632547,19.5063459 C21.123625,19.5063459 21.2589354,19.5614544 21.36919,19.671673 C21.4794446,19.7818915 21.534571,19.9171578 21.534571,20.0774757 C21.5145247,20.7588268 21.183766,21.6956706 20.5422849,22.8880351 C19.9008038,24.0803997 19.1991943,25.1474998 18.4374355,26.0893676 L21.8051945,29.5462054 C21.9455185,29.6864836 22.0156794,29.8267597 22.0156794,29.9670378 C22.0156794,30.1273558 21.960553,30.2576121 21.8502984,30.3578108 C21.7400439,30.4580095 21.6047335,30.5081081 21.4443632,30.5081081 L17.1444566,30.5081081 C16.823716,30.5081081 16.5631182,30.4079109 16.3626554,30.2075135 L15.0696764,28.9750757 C14.2477788,29.6163474 13.3557325,30.0822643 12.3935108,30.3728405 C11.4312891,30.6634168 10.3588289,30.8087027 9.17609812,30.8087027 C6.79059021,30.8087027 4.90125619,30.262628 3.50803939,29.1704622 Z M11.220809,15.8541216 C11.6217347,15.4833864 11.8221945,15.0475286 11.8221945,14.5465351 C11.8221945,14.0455416 11.6467921,13.6347331 11.2959822,13.3140973 C10.9451722,12.9934615 10.499149,12.8331459 9.95789933,12.8331459 C9.4567422,12.8331459 9.02575354,12.9984713 8.66492041,13.329127 C8.30408728,13.6597827 8.12367342,14.0756011 8.12367342,14.5765946 C8.12367342,14.9172702 8.22891484,15.2729702 8.43940083,15.6437054 C8.64988683,16.0144406 9.00570305,16.4603181 9.50686017,16.9813514 C10.2485727,16.6005963 10.8198833,16.2248568 11.220809,15.8541216 Z M12.1529566,25.8188324 L8.27401981,21.9712216 C7.03115014,22.632533 6.40972463,23.4441303 6.40972463,24.4060378 C6.40972463,25.1475082 6.68535691,25.7436815 7.23662975,26.1945757 C7.78790259,26.6454698 8.43438558,26.8709135 9.17609812,26.8709135 C10.3387827,26.8709135 11.3310589,26.5202233 12.1529566,25.8188324 Z"/>
        <path fill="#97CA65" d="M28.4915376,30.2644919 C26.6369571,28.6753704 25.7096807,26.291724 25.7096807,23.1134811 L25.7096807,9.01873514 C25.7096807,8.76539693 25.7903134,8.55236573 25.9515813,8.37963514 C26.1128492,8.20690454 26.3201905,8.12054054 26.5736114,8.12054054 L31.3079518,8.12054054 C31.5613727,8.12054054 31.7744735,8.20690454 31.9472605,8.37963514 C32.1200475,8.55236573 32.2064397,8.76539693 32.2064397,9.01873514 L32.2064397,23.0443892 C32.2064397,24.4722954 32.5462491,25.543209 33.225878,26.2571622 C33.9055069,26.9711153 34.8788591,27.3280865 36.1459638,27.3280865 C37.4130686,27.3280865 38.3864208,26.9653577 39.0660497,26.2398892 C39.7456786,25.5144207 40.0854879,24.4492647 40.0854879,23.0443892 L40.0854879,9.01873514 C40.0854879,8.76539693 40.1718801,8.55236573 40.3446671,8.37963514 C40.5174541,8.20690454 40.7305549,8.12054054 40.9839759,8.12054054 L45.683759,8.12054054 C45.9371799,8.12054054 46.1502807,8.20690454 46.3230677,8.37963514 C46.4958547,8.55236573 46.582247,8.76539693 46.582247,9.01873514 L46.582247,23.1134811 C46.582247,26.291724 45.6607301,28.6753704 43.8176686,30.2644919 C41.9746072,31.8536134 39.4289168,32.6481622 36.1805211,32.6481622 C32.909087,32.6481622 30.3461182,31.8536134 28.4915376,30.2644919 Z M47.9777756,32.0781541 C47.8280269,31.9284542 47.7531536,31.7614838 47.7531536,31.5772378 C47.7531536,31.4390534 47.7877105,31.300871 47.8568253,31.1626865 L55.3903012,19.9698 L48.4442982,9.26055676 C48.3751834,9.12237228 48.3406265,8.98418988 48.3406265,8.84600541 C48.3406265,8.66175944 48.4154997,8.49478904 48.5652485,8.34508919 C48.7149972,8.19538934 48.8820222,8.12054054 49.0663283,8.12054054 L54.3535843,8.12054054 C54.8604262,8.12054054 55.2751088,8.37387494 55.5976446,8.88055135 L59.5026114,14.8915459 L63.5458072,8.88055135 C63.868343,8.37387494 64.2715066,8.12054054 64.7553102,8.12054054 L69.8006657,8.12054054 C69.9849718,8.12054054 70.1519967,8.19538934 70.3017455,8.34508919 C70.4514942,8.49478904 70.5263675,8.66175944 70.5263675,8.84600541 C70.5263675,8.98418988 70.4918106,9.12237228 70.4226958,9.26055676 L63.4075783,19.9007081 L71.0101687,31.1626865 C71.0792835,31.300871 71.1138404,31.4390534 71.1138404,31.5772378 C71.1138404,31.7614838 71.0389671,31.9284542 70.8892184,32.0781541 C70.7394696,32.2278539 70.5724447,32.3027027 70.3881385,32.3027027 L64.9280964,32.3027027 C64.4212545,32.3027027 64.0180908,32.0723987 63.7185934,31.6117838 L59.2952681,25.1862378 L54.9756144,31.6117838 C54.676117,32.0723987 54.2729533,32.3027027 53.7661114,32.3027027 L48.4788554,32.3027027 C48.2945493,32.3027027 48.1275243,32.2278539 47.9777756,32.0781541 Z M72.9240557,32.0436081 C72.7512687,31.8708775 72.6648765,31.6693615 72.6648765,31.4390541 L72.6648765,9.01873514 C72.6648765,8.76539693 72.7455092,8.55236573 72.9067771,8.37963514 C73.068045,8.20690454 73.2753863,8.12054054 73.5288072,8.12054054 L82.6173584,8.12054054 C86.0270221,8.12054054 88.6763831,8.93236215 90.5655211,10.5560297 C92.4546591,12.1796973 93.4452897,14.5115253 93.5374428,17.5515838 C93.560481,18.2194754 93.572,19.1061458 93.572,20.2116216 C93.572,21.3170974 93.560481,22.1922526 93.5374428,22.8371135 C93.3070601,29.1475379 89.7246632,32.3027027 82.7901446,32.3027027 L73.5288072,32.3027027 C73.2984246,32.3027027 73.0968427,32.2163387 72.9240557,32.0436081 Z M82.6173584,27.1208108 C84.0687693,27.1208108 85.1400327,26.7753548 85.8311807,26.0844324 C86.5223288,25.3935101 86.8909355,24.2880508 86.9370121,22.7680216 C86.9830886,22.10013 87.0061265,21.23649 87.0061265,20.1770757 C87.0061265,19.1176614 86.9830886,18.2655366 86.9370121,17.6206757 C86.8909355,16.1467079 86.4935314,15.0585215 85.7447877,14.3560838 C84.996044,13.653646 83.8959832,13.3024324 82.4445723,13.3024324 L79.1616356,13.3024324 L79.1616356,27.1208108 L82.6173584,27.1208108 Z"/>
      </g>
    </g>
    <mask id="b" fill="white">
      <use xlink:href="#a"/>
    </mask>
    <use fill="#D4D4D4" xlink:href="#a"/>
    <rect width="39" height="83" fill="#D8D8D8" mask="url(#b)"/>
    <g transform="matrix(-1 0 0 1 149 0)">
      <mask id="d" fill="white">
        <use xlink:href="#c"/>
      </mask>
      <use fill="#D4D4D4" xlink:href="#c"/>
      <rect width="39" height="83" fill="#D8D8D8" mask="url(#d)"/>
    </g>
  </g>
</svg>
