<svg xmlns="http://www.w3.org/2000/svg" width="85" height="83" viewBox="0 0 85 83">
  <g fill="none" fill-rule="evenodd">
    <ellipse cx="42.5" cy="41.5" fill="#97C965" rx="42.5" ry="41.5"/>
    <path fill="#F4F4F4" d="M19.1556953,53.2788732 C17.0518879,51.4647797 16,48.7436801 16,45.115493 L16,29.0253521 C16,28.7361488 16.0914685,28.4929587 16.2744083,28.2957746 C16.4573481,28.0985906 16.6925528,28 16.9800296,28 L22.3505917,28 C22.6380685,28 22.8798067,28.0985906 23.0758136,28.2957746 C23.2718205,28.4929587 23.3698225,28.7361488 23.3698225,29.0253521 L23.3698225,45.0366197 C23.3698225,46.6666748 23.7552969,47.8891978 24.5262574,48.7042254 C25.2972179,49.5192529 26.4013735,49.9267606 27.8387574,49.9267606 C29.2761413,49.9267606 30.3802969,49.5126802 31.1512574,48.684507 C31.9222179,47.8563339 32.3076923,46.6403836 32.3076923,45.0366197 L32.3076923,29.0253521 C32.3076923,28.7361488 32.4056943,28.4929587 32.6017012,28.2957746 C32.7977081,28.0985906 33.0394463,28 33.3269231,28 L38.658284,28 C38.9457608,28 39.187499,28.0985906 39.3835059,28.2957746 C39.5795128,28.4929587 39.6775148,28.7361488 39.6775148,29.0253521 L39.6775148,45.115493 C39.6775148,48.7436801 38.6321604,51.4647797 36.5414201,53.2788732 C34.4506799,55.0929668 31.5628882,56 27.8779586,56 C24.1668947,56 21.2595026,55.0929668 19.1556953,53.2788732 Z M42.7548077,55.3492958 C42.584935,55.1784029 42.5,54.9877945 42.5,54.7774648 C42.5,54.6197175 42.5392008,54.4619726 42.6176036,54.3042254 L51.1634615,41.5267606 L43.2840237,29.3014085 C43.2056209,29.1436612 43.1664201,28.9859163 43.1664201,28.828169 C43.1664201,28.6178393 43.2513552,28.4272309 43.4212278,28.256338 C43.5911005,28.0854452 43.7805709,28 43.989645,28 L49.987426,28 C50.5623796,28 51.0327891,28.289199 51.3986686,28.8676056 L55.8284024,35.7295775 L60.4149408,28.8676056 C60.7808204,28.289199 61.2381629,28 61.7869822,28 L67.510355,28 C67.7194291,28 67.9088995,28.0854452 68.0787722,28.256338 C68.2486448,28.4272309 68.3335799,28.6178393 68.3335799,28.828169 C68.3335799,28.9859163 68.2943791,29.1436612 68.2159763,29.3014085 L60.2581361,41.4478873 L68.8823964,54.3042254 C68.9607992,54.4619726 69,54.6197175 69,54.7774648 C69,54.9877945 68.915065,55.1784029 68.7451923,55.3492958 C68.5753197,55.5201886 68.3858492,55.6056338 68.1767751,55.6056338 L61.9829882,55.6056338 C61.4080346,55.6056338 60.950692,55.3427256 60.6109467,54.8169014 L55.5931953,47.4816901 L50.6930473,54.8169014 C50.353302,55.3427256 49.8959595,55.6056338 49.3210059,55.6056338 L43.3232249,55.6056338 C43.1141508,55.6056338 42.9246803,55.5201886 42.7548077,55.3492958 Z"/>
  </g>
</svg>
